<?xml version="1.0" encoding="UTF-8" standalone="no"?>
<!-- Created with Inkscape (http://www.inkscape.org/) -->

<svg
   xmlns:dc="http://purl.org/dc/elements/1.1/"
   xmlns:cc="http://creativecommons.org/ns#"
   xmlns:rdf="http://www.w3.org/1999/02/22-rdf-syntax-ns#"
   xmlns:svg="http://www.w3.org/2000/svg"
   xmlns="http://www.w3.org/2000/svg"
   xmlns:sodipodi="http://sodipodi.sourceforge.net/DTD/sodipodi-0.dtd"
   xmlns:inkscape="http://www.inkscape.org/namespaces/inkscape"
   width="212"
   height="150"
   viewBox="0 0 56.091665 39.687501"
   version="1.1"
   id="svg8"
   inkscape:version="0.92.3 (2405546, 2018-03-11)"
   sodipodi:docname="addItem.svg">
  <defs
     id="defs2" />
  <sodipodi:namedview
     id="base"
     pagecolor="#ffffff"
     bordercolor="#666666"
     borderopacity="1.0"
     inkscape:pageopacity="0.0"
     inkscape:pageshadow="2"
     inkscape:zoom="1.979899"
     inkscape:cx="102.83093"
     inkscape:cy="30.66034"
     inkscape:document-units="mm"
     inkscape:current-layer="layer1"
     showgrid="false"
     inkscape:window-width="1920"
     inkscape:window-height="1017"
     inkscape:window-x="1358"
     inkscape:window-y="-8"
     inkscape:window-maximized="1"
     units="px" />
  <metadata
     id="metadata5">
    <rdf:RDF>
      <cc:Work
         rdf:about="">
        <dc:format>image/svg+xml</dc:format>
        <dc:type
           rdf:resource="http://purl.org/dc/dcmitype/StillImage" />
        <dc:title></dc:title>
      </cc:Work>
    </rdf:RDF>
  </metadata>
  <g
     inkscape:label="Layer 1"
     inkscape:groupmode="layer"
     id="layer1"
     transform="translate(0,-257.31248)">
    <rect
       style="opacity:0.31099997;fill:#ffffff;fill-opacity:1;stroke:#ffffff;stroke-width:0.33614698;stroke-linecap:butt;stroke-linejoin:round;stroke-miterlimit:4;stroke-dasharray:none;stroke-opacity:1;paint-order:markers stroke fill"
       id="rect815"
       width="55.832775"
       height="39.155594"
       x="0.15284638"
       y="257.63791"
       inkscape:export-xdpi="96"
       inkscape:export-ydpi="96" />
    <path
       id="path821"
       d="m 29.841851,270.74068 v -7.33837 h -11.07879 c -0.73674,0 -1.32946,0.57736 -1.32946,1.29501 v 25.03677 c 0,0.71765 0.59272,1.29501 1.32946,1.29501 h 18.61237 c 0.73674,0 1.32945,-0.57736 1.32945,-1.29501 v -17.69841 h -7.53358 c -0.7312,0 -1.32945,-0.58275 -1.32945,-1.295 z m 3.16299,6.47503 h 1.32392 c 0.42653,0 0.74228,0.3831 0.64811,0.79319 l -2.10497,9.06504 c -0.0665,0.29677 -0.33791,0.50181 -0.64811,0.50181 h -2.10497 c -0.30467,0 -0.57056,-0.20504 -0.64257,-0.49102 -1.42917,-5.58471 -1.1522,-4.38144 -1.41809,-5.96242 h -0.0277 c -0.0609,0.7716 -0.13295,0.93888 -1.41809,5.96242 -0.072,0.28598 -0.3379,0.49102 -0.64257,0.49102 h -2.05511 c -0.31021,0 -0.58164,-0.21044 -0.64811,-0.50721 l -2.09389,-9.06504 c -0.0942,-0.40469 0.22157,-0.78779 0.64811,-0.78779 h 1.35715 c 0.31574,0 0.59271,0.21583 0.65365,0.52339 0.86414,4.20877 1.11341,5.90847 1.16327,6.59374 0.0886,-0.55038 0.40438,-1.76445 1.62858,-6.62072 0.072,-0.29137 0.3379,-0.49102 0.64811,-0.49102 h 1.61197 c 0.3102,0 0.57609,0.20504 0.6481,0.49642 1.32946,5.41744 1.59535,6.69086 1.63966,6.98224 -0.0111,-0.60434 -0.14402,-0.96046 1.19651,-6.97145 0.0554,-0.30217 0.32683,-0.5126 0.63703,-0.5126 z m 5.70004,-7.23585 v 0.32915 h -7.09042 v -6.9067 h 0.3379 c 0.35452,0 0.69242,0.1349 0.94169,0.37771 l 5.42307,5.28794 c 0.24928,0.24281 0.38776,0.57196 0.38776,0.9119 z"
       inkscape:connector-curvature="0"
       style="fill:#5599ff;stroke-width:0.05467156" />
  </g>
</svg>
