<?xml version="1.0" encoding="UTF-8" standalone="no"?>
<!-- Created with Inkscape (http://www.inkscape.org/) -->

<svg
   xmlns:dc="http://purl.org/dc/elements/1.1/"
   xmlns:cc="http://creativecommons.org/ns#"
   xmlns:rdf="http://www.w3.org/1999/02/22-rdf-syntax-ns#"
   xmlns:svg="http://www.w3.org/2000/svg"
   xmlns="http://www.w3.org/2000/svg"
   xmlns:sodipodi="http://sodipodi.sourceforge.net/DTD/sodipodi-0.dtd"
   xmlns:inkscape="http://www.inkscape.org/namespaces/inkscape"
   width="212"
   height="150"
   viewBox="0 0 56.091665 39.687501"
   version="1.1"
   id="svg8"
   inkscape:version="0.92.3 (2405546, 2018-03-11)"
   sodipodi:docname="pdf.svg">
  <defs
     id="defs2" />
  <sodipodi:namedview
     id="base"
     pagecolor="#ffffff"
     bordercolor="#666666"
     borderopacity="1.0"
     inkscape:pageopacity="0.0"
     inkscape:pageshadow="2"
     inkscape:zoom="2.8"
     inkscape:cx="91.675456"
     inkscape:cy="99.843876"
     inkscape:document-units="mm"
     inkscape:current-layer="layer1"
     showgrid="false"
     inkscape:window-width="1920"
     inkscape:window-height="1017"
     inkscape:window-x="1358"
     inkscape:window-y="-8"
     inkscape:window-maximized="1"
     units="px" />
  <metadata
     id="metadata5">
    <rdf:RDF>
      <cc:Work
         rdf:about="">
        <dc:format>image/svg+xml</dc:format>
        <dc:type
           rdf:resource="http://purl.org/dc/dcmitype/StillImage" />
        <dc:title></dc:title>
      </cc:Work>
    </rdf:RDF>
  </metadata>
  <g
     inkscape:label="Layer 1"
     inkscape:groupmode="layer"
     id="layer1"
     transform="translate(0,-257.31248)">
    <rect
       style="opacity:0.31099997;fill:#ffffff;fill-opacity:1;stroke:#ffffff;stroke-width:0.33614698;stroke-linecap:butt;stroke-linejoin:round;stroke-miterlimit:4;stroke-dasharray:none;stroke-opacity:1;paint-order:markers stroke fill"
       id="rect815"
       width="55.832775"
       height="39.155594"
       x="0.15284638"
       y="257.63791"
       inkscape:export-xdpi="96"
       inkscape:export-ydpi="96" />
    <path
       id="path851"
       d="m 27.52959,277.22105 c -0.267149,-0.85489 -0.261806,-2.50587 -0.10686,-2.50587 0.448812,0 0.406067,1.97157 0.10686,2.50587 z m -0.09083,2.52189 c -0.41141,1.07928 -0.924338,2.31352 -1.51741,3.35006 0.977768,-0.37401 2.083769,-0.91899 3.360746,-1.17012 -0.678563,-0.51293 -1.330408,-1.25026 -1.843336,-2.17994 z m -5.027759,6.66806 c 0,0.0428 0.705275,-0.28852 1.864706,-2.14789 -0.357981,0.33661 -1.554813,1.30904 -1.864706,2.14789 z m 8.650312,-14.32457 h 7.266475 v 17.52503 c 0,0.71062 -0.571701,1.28232 -1.282319,1.28232 H 19.092998 c -0.710618,0 -1.282319,-0.5717 -1.282319,-1.28232 v -24.79151 c 0,-0.71062 0.571701,-1.28232 1.282319,-1.28232 h 10.685993 v 7.26648 c 0,0.70527 0.577044,1.28232 1.28232,1.28232 z m -0.42744,9.17926 c -1.0686,-0.65184 -1.779218,-1.54946 -2.281459,-2.87452 0.240434,-0.98846 0.619787,-2.48984 0.331265,-3.4302 -0.251121,-1.57085 -2.265431,-1.4159 -2.553952,-0.36333 -0.26715,0.97777 -0.02138,2.35626 0.432783,4.11411 -0.619788,1.47466 -1.53344,3.45158 -2.179943,4.58429 -0.0053,0 -0.0053,0.006 -0.01068,0.006 -1.447953,0.74268 -3.932445,2.37763 -2.911933,3.63325 0.299207,0.36866 0.854879,0.53429 1.148744,0.53429 0.956396,0 1.90745,-0.96174 3.264571,-3.30197 1.378494,-0.45415 2.890561,-1.02051 4.220967,-1.23958 1.159431,0.63048 2.516551,1.04189 3.419519,1.04189 1.560153,0 1.667015,-1.70977 1.052569,-2.31886 -0.742675,-0.72666 -2.901246,-0.51828 -3.932444,-0.38471 z m 7.319906,-12.11791 -5.236138,-5.23613 c -0.240434,-0.24044 -0.566356,-0.37402 -0.908309,-0.37402 h -0.32058 v 6.83904 h 6.839036 v -0.32592 c 0,-0.33661 -0.133576,-0.66253 -0.374009,-0.90297 z m -3.959166,13.64067 c 0.219063,-0.14426 -0.133575,-0.63582 -2.286802,-0.48087 1.982252,0.84419 2.286802,0.48087 2.286802,0.48087 z"
       inkscape:connector-curvature="0"
       style="fill:#d40000;stroke-width:0.05342997" />
  </g>
</svg>
